<?xml version="1.0" encoding="UTF-8" standalone="no"?>
<!-- Created with Inkscape (http://www.inkscape.org/) -->

<svg
   xmlns:dc="http://purl.org/dc/elements/1.1/"
   xmlns:cc="http://creativecommons.org/ns#"
   xmlns:rdf="http://www.w3.org/1999/02/22-rdf-syntax-ns#"
   xmlns:svg="http://www.w3.org/2000/svg"
   xmlns="http://www.w3.org/2000/svg"
   xmlns:xlink="http://www.w3.org/1999/xlink"
   xmlns:sodipodi="http://sodipodi.sourceforge.net/DTD/sodipodi-0.dtd"
   xmlns:inkscape="http://www.inkscape.org/namespaces/inkscape"
   width="478.17542"
   height="418.98874"
   id="flauschi"
   version="1.1"
   inkscape:version="0.48.4 r9939"
   sodipodi:docname="flauschi_normal.svg">
  <defs
     id="defs4">
    <linearGradient
       id="linearGradient5825">
      <stop
         style="stop-color:#b859fd;stop-opacity:1;"
         offset="0"
         id="stop5827" />
      <stop
         id="stop5829"
         offset="0.90149879"
         style="stop-color:#596af4;stop-opacity:1;" />
      <stop
         id="stop5831"
         offset="0.97084862"
         style="stop-color:#59fdf4;stop-opacity:1;" />
      <stop
         style="stop-color:#59fdf4;stop-opacity:1;"
         offset="1"
         id="stop5833" />
    </linearGradient>
    <radialGradient
       inkscape:collect="always"
       xlink:href="#linearGradient5825"
       id="radialGradient5509"
       cx="549.26031"
       cy="738.69629"
       fx="549.26031"
       fy="738.69629"
       r="238.23772"
       gradientTransform="matrix(1,0,0,0.87578228,-0.86956522,92.628734)"
       gradientUnits="userSpaceOnUse" />
  </defs>
  <sodipodi:namedview
     id="base"
     pagecolor="#ffffff"
     bordercolor="#666666"
     borderopacity="1.0"
     inkscape:pageopacity="0.0"
     inkscape:pageshadow="2"
     inkscape:zoom="2.3"
     inkscape:cx="185.0188"
     inkscape:cy="244.38626"
     inkscape:document-units="px"
     inkscape:current-layer="eyes"
     showgrid="false"
     inkscape:window-width="1280"
     inkscape:window-height="999"
     inkscape:window-x="0"
     inkscape:window-y="0"
     inkscape:window-maximized="1"
     fit-margin-top="0"
     fit-margin-left="0"
     fit-margin-right="0"
     fit-margin-bottom="0" />
  <metadata
     id="metadata7">
    <rdf:RDF>
      <cc:Work
         rdf:about="">
        <dc:format>image/svg+xml</dc:format>
        <dc:type
           rdf:resource="http://purl.org/dc/dcmitype/StillImage" />
        <dc:title />
      </cc:Work>
    </rdf:RDF>
  </metadata>
  <g
     inkscape:label="Ebene 1"
     inkscape:groupmode="layer"
     id="normal_flausch"
     transform="translate(-309.30303,-530.07147)">
    <path
       style="fill:url(#radialGradient5509);fill-opacity:1;stroke:#5b4ba6;stroke-width:5.44999981;stroke-linecap:round;stroke-linejoin:miter;stroke-miterlimit:50;stroke-opacity:1;stroke-dasharray:none;marker-start:none;marker-mid:none"
       d="m 549.13043,533.40416 c 0,0 -18.15022,19.85178 -2.5862,35.34483 25.04678,-49.16211 75,-33.62069 75,-33.62069 0,0 -44.91265,4.63786 -36.2069,30.17241 36.29196,-27.91373 114.65517,4.31035 114.65517,4.31035 0,0 -51.51024,-12.70457 -55.17241,12.06896 65.30334,1.49767 92.24138,29.31035 92.24138,29.31035 0,0 -32.32841,-7.48036 -38.79311,18.10344 70.25943,3.17002 83.62069,79.31035 83.62069,79.31035 0,0 -19.37702,-18.62425 -28.44827,-0.86207 51.27358,12.58977 24.13793,52.58622 24.13793,52.58622 0,0 -3.61441,-28.95708 -22.4138,-21.55173 17.40751,53.95707 0.86207,98.27586 0.86207,98.27586 0,0 3.64275,-24.75294 -19.82758,-25.86207 -1.91861,61.8219 -57.75863,84.48275 -57.75863,84.48275 0,0 20.21016,-26.55901 6.89656,-30.17241 -22.79638,54.14523 -88.79311,71.55173 -88.79311,71.55173 0,0 23.86494,-30.32448 9.48276,-33.62069 -2.31322,19.11759 -30.17241,43.10345 -30.17241,43.10345 0,0 9.78378,-28.02489 0,-33.62069 -14.9562,18.54214 -39.65517,22.41379 -39.65517,22.41379 0,0 3.24639,-16.60108 -9.48276,-17.24138 -12.72915,-0.64029 -7.75862,25 -7.75862,25 0,0 -33.86764,-18.38788 -38.79311,-37.93104 -15.72911,-14.34115 -6.03448,18.96553 -6.03448,18.96553 0,0 -23.93258,-14.4906 -23.27586,-38.79311 -17.44673,-6.19905 -18.10345,35.34482 -18.10345,35.34482 0,0 -38.78583,-23.46646 -32.97872,-68.94717 -23.50323,-10.99794 -19.60749,30.15408 -19.60749,30.15408 0,0 -51.94189,-61.83536 -24.13793,-113.79311 -13.57536,-14.88877 -45.16876,33.7979 -43.96552,19.82759 6.01163,-69.79863 51.33682,-96.76568 59.48276,-108.62069 -10.42605,-11.23132 -54.84225,16.08584 -54.84225,16.08584 0,0 21.14883,-88.21659 109.00586,-92.36978 3.46598,-34.82083 -48.99119,-11.6471 -48.99119,-11.6471 0,0 72.55697,-53.00321 107.75862,-17.24138 9.33957,-34.92782 -47.41379,-34.48275 -47.41379,-34.48275 0,0 69.57452,-10.55126 92.24138,27.5862 -4.91936,-32.55219 19.82758,-33.62069 19.82758,-33.62069 z"
       id="flauscheball"
       inkscape:connector-curvature="0"
       sodipodi:nodetypes="ccccccccccccccccccccccccccccccscccccccc" />
    <g
       id="eyes">
      <path
         transform="translate(3.7234043,301.88472)"
         d="m 528.7234,393.56256 a 43.88298,43.085106 0 1 1 -87.76596,0 43.88298,43.085106 0 1 1 87.76596,0 z"
         sodipodi:ry="43.085106"
         sodipodi:rx="43.88298"
         sodipodi:cy="393.56256"
         sodipodi:cx="484.84042"
         id="eyeball_L"
         style="fill:#96dcff;fill-opacity:1;stroke:#000000;stroke-width:3.75;stroke-miterlimit:4;stroke-opacity:1;stroke-dasharray:none"
         sodipodi:type="arc" />
      <path
         d="m 496.51064,694 a 8.5106382,8.2446804 0 1 1 -17.02128,0 8.5106382,8.2446804 0 1 1 17.02128,0 z"
         sodipodi:ry="8.2446804"
         sodipodi:rx="8.5106382"
         sodipodi:cy="694"
         sodipodi:cx="488"
         id="eye_L"
         style="fill:#000000;fill-opacity:1;stroke:#000000;stroke-width:3.75;stroke-miterlimit:4;stroke-opacity:0.98269899;stroke-dasharray:none"
         sodipodi:type="arc"
         transform="translate(0,0.86956522)" />
      <path
         transform="matrix(1.0357432,0,0,0.95395894,-38.87598,318.61913)"
         d="m 671.27658,380.7966 a 59.840427,63.297871 0 1 1 -119.68085,0 59.840427,63.297871 0 1 1 119.68085,0 z"
         sodipodi:ry="63.297871"
         sodipodi:rx="59.840427"
         sodipodi:cy="380.7966"
         sodipodi:cx="611.43616"
         id="eyeball_R"
         style="fill:#96dcff;fill-opacity:1;stroke:#000000;stroke-width:3.75;stroke-miterlimit:4;stroke-opacity:1;stroke-dasharray:none"
         sodipodi:type="arc" />
      <path
         d="m 600.84043,683 a 9.8404255,9.8404255 0 1 1 -19.68086,0 9.8404255,9.8404255 0 1 1 19.68086,0 z"
         sodipodi:ry="9.8404255"
         sodipodi:rx="9.8404255"
         sodipodi:cy="683"
         sodipodi:cx="591"
         id="eye_R"
         style="fill:#000000;fill-opacity:1;stroke:#000000;stroke-width:3.75;stroke-miterlimit:4;stroke-opacity:0.98269899;stroke-dasharray:none"
         sodipodi:type="arc" />
    </g>
    <path
       style="fill:#424ba6;fill-opacity:1;stroke:#424ba6;stroke-width:1px;stroke-linecap:butt;stroke-linejoin:miter;stroke-opacity:1"
       d="m 460.67992,604.33721 c 4.96765,-0.0255 9.22571,17.12477 4.78724,14.89362 -12.91657,-6.49297 -34.57447,26.06383 -34.57447,26.06383 0,0 14.34561,-40.87835 29.78723,-40.95745 z"
       id="eyebrow_L"
       inkscape:connector-curvature="0"
       sodipodi:nodetypes="sscs" />
    <path
       style="fill:#424ba6;fill-opacity:1;stroke:#424ba6;stroke-width:1.12199998;stroke-linecap:butt;stroke-linejoin:miter;stroke-miterlimit:4;stroke-opacity:1;stroke-dasharray:none"
       d="m 606.84325,572.62817 c -6.93865,-0.0148 -14.64459,21.33233 -8.71526,17.02794 20.951,-15.2094 64.68186,34.45675 64.68186,34.45675 0,0 -21.97987,-51.41238 -55.9666,-51.48469 z"
       id="eyebrow_R"
       inkscape:connector-curvature="0"
       sodipodi:nodetypes="sscs" />
    <g
       id="mouth">
      <path
         sodipodi:nodetypes="cccc"
         transform="translate(0,308.2677)"
         inkscape:connector-curvature="0"
         id="tooth"
         d="m 645.74468,510.58384 10.63829,12.23405 12.23405,-11.17022 -9.04255,-17.55319"
         style="fill:#ffffff;fill-opacity:1;stroke:#ffffff;stroke-width:3.75;stroke-linecap:butt;stroke-linejoin:miter;stroke-miterlimit:4;stroke-opacity:1;stroke-dasharray:none" />
      <path
         sodipodi:nodetypes="cc"
         inkscape:connector-curvature="0"
         id="path3841"
         d="m 667.02128,783.74517 c -13.82979,42.02127 -55.85106,49.46808 -55.85106,49.46808"
         style="fill:none;stroke:#424ba6;stroke-width:3.75;stroke-linecap:butt;stroke-linejoin:miter;stroke-miterlimit:4;stroke-opacity:1;stroke-dasharray:none" />
      <path
         sodipodi:nodetypes="csc"
         transform="translate(0,308.2677)"
         inkscape:connector-curvature="0"
         id="path3843"
         d="m 652.65957,450.47746 c 0,0 7.45765,23.04082 13.82979,25.53192 16.97444,6.63592 26.59575,-5.31915 26.59575,-5.31915"
         style="fill:url(#linearGradient7281);fill-opacity:1;stroke:#424ba6;stroke-width:3.75;stroke-linecap:butt;stroke-linejoin:miter;stroke-miterlimit:4;stroke-opacity:1;stroke-dasharray:none" />
    </g>
  </g>
</svg>
