<?xml version="1.0" encoding="UTF-8" standalone="no"?>
<!-- Created with Inkscape (http://www.inkscape.org/) -->

<svg
   xmlns:dc="http://purl.org/dc/elements/1.1/"
   xmlns:cc="http://creativecommons.org/ns#"
   xmlns:rdf="http://www.w3.org/1999/02/22-rdf-syntax-ns#"
   xmlns:svg="http://www.w3.org/2000/svg"
   xmlns="http://www.w3.org/2000/svg"
   xmlns:xlink="http://www.w3.org/1999/xlink"
   xmlns:sodipodi="http://sodipodi.sourceforge.net/DTD/sodipodi-0.dtd"
   xmlns:inkscape="http://www.inkscape.org/namespaces/inkscape"
   width="1052.3622"
   height="744.09448"
   id="svg2"
   version="1.1"
   inkscape:version="0.48.4 r9939"
   sodipodi:docname="Flauschi Squeeze.svg.2015_05_29_19_51_47.0.svg">
  <defs
     id="defs4">
    <linearGradient
       id="linearGradient5825">
      <stop
         style="stop-color:#b859fd;stop-opacity:1;"
         offset="0"
         id="stop5827" />
      <stop
         id="stop5829"
         offset="0.90149879"
         style="stop-color:#596af4;stop-opacity:1;" />
      <stop
         id="stop5831"
         offset="0.97084862"
         style="stop-color:#59fdf4;stop-opacity:1;" />
      <stop
         style="stop-color:#59fdf4;stop-opacity:1;"
         offset="1"
         id="stop5833" />
    </linearGradient>
    <radialGradient
       inkscape:collect="always"
       xlink:href="#linearGradient5825"
       id="radialGradient3781"
       cx="548.39075"
       cy="739.56586"
       fx="548.39075"
       fy="739.56586"
       r="239.08771"
       gradientTransform="matrix(1,0,0,0.87622389,0,91.540581)"
       gradientUnits="userSpaceOnUse" />
  </defs>
  <sodipodi:namedview
     id="base"
     pagecolor="#ffffff"
     bordercolor="#666666"
     borderopacity="1.0"
     inkscape:pageopacity="0.0"
     inkscape:pageshadow="2"
     inkscape:zoom="1.15"
     inkscape:cx="356.86343"
     inkscape:cy="225.23855"
     inkscape:document-units="px"
     inkscape:current-layer="flauschi_surprised"
     showgrid="false"
     inkscape:window-width="1280"
     inkscape:window-height="999"
     inkscape:window-x="0"
     inkscape:window-y="0"
     inkscape:window-maximized="1" />
  <metadata
     id="metadata7">
    <rdf:RDF>
      <cc:Work
         rdf:about="">
        <dc:format>image/svg+xml</dc:format>
        <dc:type
           rdf:resource="http://purl.org/dc/dcmitype/StillImage" />
        <dc:title />
      </cc:Work>
    </rdf:RDF>
  </metadata>
  <g
     inkscape:label="Ebene 1"
     inkscape:groupmode="layer"
     id="flauschi_surprised"
     transform="translate(0,-308.2677)">
    <path
       style="fill:url(#radialGradient3781);fill-opacity:1;stroke:#5b4ba6;stroke-width:5.44999980999999956;stroke-linecap:round;stroke-linejoin:miter;stroke-miterlimit:50;stroke-opacity:1;stroke-dasharray:none;marker-start:none;marker-mid:none"
       d="m 549.13043,533.40416 c 0,0 -18.15022,19.85178 -2.5862,35.34483 25.04678,-49.16211 75,-33.62069 75,-33.62069 0,0 -44.91265,4.63786 -36.2069,30.17241 36.29196,-27.91373 114.65517,4.31035 114.65517,4.31035 0,0 -51.51024,-12.70457 -55.17241,12.06896 65.30334,1.49767 92.24138,29.31035 92.24138,29.31035 0,0 -32.32841,-7.48036 -38.79311,18.10344 70.25943,3.17002 83.62069,79.31035 83.62069,79.31035 0,0 -19.37702,-18.62425 -28.44827,-0.86207 51.27358,12.58977 24.13793,52.58622 24.13793,52.58622 0,0 -3.61441,-28.95708 -22.4138,-21.55173 17.40751,53.95707 0.86207,98.27586 0.86207,98.27586 0,0 3.64275,-24.75294 -19.82758,-25.86207 -1.91861,61.8219 -57.75863,84.48275 -57.75863,84.48275 0,0 20.21016,-26.55901 6.89656,-30.17241 -22.79638,54.14523 -88.79311,71.55173 -88.79311,71.55173 0,0 23.86494,-30.32448 9.48276,-33.62069 -2.31322,19.11759 -30.17241,43.10345 -30.17241,43.10345 0,0 9.78378,-28.02489 0,-33.62069 -14.9562,18.54214 -39.65517,22.41379 -39.65517,22.41379 0,0 3.24639,-16.60108 -9.48276,-17.24138 -12.72915,-0.64029 -7.75862,25 -7.75862,25 0,0 -33.86764,-18.38788 -38.79311,-37.93104 -15.72911,-14.34115 -6.03448,18.96553 -6.03448,18.96553 0,0 -23.93258,-14.4906 -23.27586,-38.79311 -17.44673,-6.19905 -18.10345,35.34482 -18.10345,35.34482 0,0 -38.78583,-23.46646 -32.97872,-68.94717 -23.50323,-10.99794 -19.60749,30.15408 -19.60749,30.15408 0,0 -51.94189,-61.83536 -24.13793,-113.79311 -13.57536,-14.88877 -45.16876,33.7979 -43.96552,19.82759 6.01163,-69.79863 51.33682,-96.76568 59.48276,-108.62069 -10.42605,-11.23132 -54.84225,16.08584 -54.84225,16.08584 0,0 21.14883,-88.21659 109.00586,-92.36978 3.46598,-34.82083 -48.99119,-11.6471 -48.99119,-11.6471 0,0 72.55697,-53.00321 107.75862,-17.24138 9.33957,-34.92782 -47.41379,-34.48275 -47.41379,-34.48275 0,0 69.57452,-10.55126 92.24138,27.5862 -4.91936,-32.55219 19.82758,-33.62069 19.82758,-33.62069 z"
       id="path2985"
       inkscape:connector-curvature="0"
       sodipodi:nodetypes="ccccccccccccccccccccccccccccccscccccccc" />
    <path
       style="fill:#96dcff;fill-opacity:1;stroke:#000000;stroke-width:5.63664579;stroke-miterlimit:4;stroke-opacity:1;stroke-dasharray:none"
       d="m 605.28533,571.74324 c -37.17236,0 -68.83629,22.41555 -80.875,53.8125 -12.18283,-13.88066 -30.33898,-22.6875 -50.625,-22.6875 -36.6816,0 -66.4375,28.79192 -66.4375,64.3125 0,35.52058 29.7559,64.3125 66.4375,64.3125 25.45307,0 47.56826,-13.86331 58.71875,-34.21875 15.24622,22.95213 42.12909,38.21875 72.78125,38.21875 47.53427,0 86.0625,-36.66277 86.0625,-81.875 0,-45.21223 -38.52823,-81.875 -86.0625,-81.875 z"
       id="path3831"
       inkscape:connector-curvature="0" />
    <path
       sodipodi:type="arc"
       style="fill:#000000;fill-opacity:1;stroke:#000000;stroke-width:3.75;stroke-miterlimit:4;stroke-opacity:0.98269899;stroke-dasharray:none"
       id="path3809"
       sodipodi:cx="479.78723"
       sodipodi:cy="387.44556"
       sodipodi:rx="8.5106382"
       sodipodi:ry="8.2446804"
       d="m 488.29787,387.44556 a 8.5106382,8.2446804 0 1 1 -17.02128,0 8.5106382,8.2446804 0 1 1 17.02128,0 z"
       transform="translate(17.247919,281.56557)" />
    <path
       sodipodi:type="arc"
       style="fill:#000000;fill-opacity:1;stroke:#000000;stroke-width:3.75;stroke-miterlimit:4;stroke-opacity:0.98269899;stroke-dasharray:none"
       id="path3811"
       sodipodi:cx="590.15955"
       sodipodi:cy="391.70087"
       sodipodi:rx="9.8404255"
       sodipodi:ry="9.8404255"
       d="m 599.99997,391.70087 a 9.8404255,9.8404255 0 1 1 -19.68085,0 9.8404255,9.8404255 0 1 1 19.68085,0 z"
       transform="matrix(0.96540536,0,0,0.91064818,-15.360365,309.93644)" />
    <path
       style="fill:#424ba6;fill-opacity:1;stroke:#424ba6;stroke-width:1.24044621px;stroke-linecap:butt;stroke-linejoin:miter;stroke-opacity:1"
       d="m 406.84269,536.63135 c 6.12039,-0.0319 11.36653,21.38713 5.89811,18.60065 -15.91385,-8.10908 -42.59745,32.55113 -42.59745,32.55113 0,0 17.6745,-51.05299 36.69934,-51.15178 z"
       id="path3819"
       inkscape:connector-curvature="0"
       sodipodi:nodetypes="sscs" />
    <path
       style="fill:#424ba6;fill-opacity:1;stroke:#424ba6;stroke-width:1.12824905;stroke-linecap:butt;stroke-linejoin:miter;stroke-miterlimit:4;stroke-opacity:1;stroke-dasharray:none"
       d="m 686.91617,528.28347 c -5.31211,-0.0196 -11.21165,28.17541 -6.67226,22.49024 16.03973,-20.08834 49.51934,45.50994 49.51934,45.50994 0,0 -16.82742,-67.90468 -42.84708,-68.00018 z"
       id="path3821"
       inkscape:connector-curvature="0"
       sodipodi:nodetypes="sscs" />
    <g
       id="g7831"
       transform="translate(6.0869565,-2.6086957)">
      <path
         transform="matrix(1.0057608,0,0,0.85173301,-22.298882,402.79981)"
         d="m 585.21739,511.48578 a 35.217392,54.347828 0 1 1 -70.43478,0 35.217392,54.347828 0 1 1 70.43478,0 z"
         sodipodi:ry="54.347828"
         sodipodi:rx="35.217392"
         sodipodi:cy="511.48578"
         sodipodi:cx="550"
         id="path7807"
         style="fill:#2e3575;fill-opacity:1;fill-rule:nonzero;stroke:#424ba6;stroke-width:6.07747841;stroke-linecap:round;stroke-linejoin:miter;stroke-miterlimit:50;stroke-opacity:1;stroke-dasharray:none"
         sodipodi:type="arc" />
      <path
         sodipodi:nodetypes="cccc"
         inkscape:connector-curvature="0"
         id="path7811"
         d="m 534.3742,793.48643 -7.82608,25.21739 17.3913,6.95652 6.95653,-23.47826"
         style="fill:#ffffff;fill-opacity:1;stroke:#ffffff;stroke-width:1px;stroke-linecap:butt;stroke-linejoin:miter;stroke-opacity:1" />
      <path
         transform="matrix(1.0057608,0,0,0.85173301,-22.069759,402.88992)"
         d="m 585.21739,511.48578 a 35.217392,54.347828 0 1 1 -70.43478,0 35.217392,54.347828 0 1 1 70.43478,0 z"
         sodipodi:ry="54.347828"
         sodipodi:rx="35.217392"
         sodipodi:cy="511.48578"
         sodipodi:cx="550"
         id="path7807-2"
         style="fill:none;stroke:#424ba6;stroke-width:6.07747841;stroke-linecap:round;stroke-linejoin:miter;stroke-miterlimit:50;stroke-opacity:1;stroke-dasharray:none"
         sodipodi:type="arc" />
    </g>
  </g>
</svg>
